<svg xmlns="http://www.w3.org/2000/svg" width="32" height="32" viewBox="0 0 32 32" fill="none">
  <!-- Page-matching black square with rounded corners -->
  <rect width="32" height="32" rx="6" fill="#000000"/>

  <!-- Outer orbital halo: dashed faint ring (mission-control feel) -->
  <circle cx="16" cy="16" r="12.5" stroke="#3a3a3a" stroke-width="0.6" stroke-dasharray="1.6 1.6" fill="none"/>

  <!-- Inner targeting reticle -->
  <circle cx="16" cy="16" r="9" stroke="#ffffff" stroke-width="0.7" stroke-opacity="0.45" fill="none"/>

  <!-- Crosshair ticks: N / S / W / E -->
  <g stroke="#ffffff" stroke-width="0.8" stroke-linecap="round" opacity="0.85">
    <line x1="16" y1="3" x2="16" y2="6"/>
    <line x1="16" y1="26" x2="16" y2="29"/>
    <line x1="3" y1="16" x2="6" y2="16"/>
    <line x1="26" y1="16" x2="29" y2="16"/>
  </g>

  <!-- Asteroid body — irregular silhouette with warm rim -->
  <path d="M12.6 11.2 L17.4 10.0 L20.6 12.4 L21.0 16.6 L18.6 20.4 L14.4 21.0 L11.6 18.0 L11.0 14.0 Z"
        fill="#e8dfd0" stroke="#a07c54" stroke-width="0.5" stroke-linejoin="round"/>

  <!-- Surface shading (terminator) — slightly darker right-side -->
  <path d="M16.5 10.5 L20.6 12.4 L21.0 16.6 L18.6 20.4 L15.5 20.6 L17.0 17.0 Z"
        fill="#9c7e58" opacity="0.55"/>

  <!-- Craters / pits -->
  <circle cx="13.4" cy="14.0" r="0.6" fill="#3a2a1a"/>
  <circle cx="17.6" cy="14.6" r="0.5" fill="#3a2a1a"/>
  <circle cx="15.6" cy="17.6" r="0.45" fill="#3a2a1a"/>

  <!-- Bright targeting tick on the asteroid (the "lock" highlight) -->
  <circle cx="20.6" cy="12.4" r="0.7" fill="#ef4444"/>
</svg>
